<?xml version="1.0" encoding="UTF-8" standalone="no"?> <!-- Created with Vectornator for iOS (http://vectornator.io/) --><!DOCTYPE svg PUBLIC "-//W3C//DTD SVG 1.1//EN" "http://www.w3.org/Graphics/SVG/1.1/DTD/svg11.dtd">
<svg style="fill-rule:evenodd;clip-rule:evenodd;stroke-linecap:round;stroke-linejoin:round;" xmlns:vectornator="http://vectornator.io" xmlns:xlink="http://www.w3.org/1999/xlink" xmlns="http://www.w3.org/2000/svg" xml:space="preserve" version="1.1" viewBox="0 0 841.89 595.276">
<metadata>
<vectornator:setting key="RulersVisible" value="1"/>
<vectornator:setting key="Units" value="Points"/>
<vectornator:setting key="DynamicGuides" value="1"/>
<vectornator:setting key="GuidesVisible" value="1"/>
<vectornator:setting key="CMYKEnabledKey" value="0"/>
<vectornator:setting key="SnapToGuides" value="1"/>
<vectornator:setting key="GridSpacing" value="36"/>
</metadata>
<defs/>
<g id="þÿ_kR;0Ñ0¹" vectornator:layerName="þÿ_kR;0Ñ0¹">
<path stroke="#ff0000" stroke-width="1" d="M172.07+193.985C172.446+193.985+172.807+194.134+173.072+194.4C173.062+194.386+202.97+235.374+202.97+235.374C203.25+235.613+203.596+235.761+203.962+235.798L308.26+251.302C308.529+251.348+308.795+251.417+309.054+251.506L350.864+275.572C351.979+276.36+353.522+276.094+354.31+274.98C354.323+274.96+354.338+274.94+354.351+274.92L391.874+209.61C393.08+207.641+393.777+205.403+393.9+203.097L393.899+35.9639C393.899+35.1819+393.265+34.5469+392.482+34.5469L336.493+34.5469C335.738+34.4329+335.154+33.8229+335.074+33.0629L335.074+29.5639C335.074+28.7809+334.439+28.1459+333.656+28.1459L282.629+28.1459C281.846+28.1459+281.212+27.5109+281.212+26.7289L281.212+22.4759C281.212+21.6939+280.577+21.0589+279.794+21.0589L228.767+21.0589C227.984+21.0589+227.35+20.4239+227.35+19.6409L227.35+16.0979C227.35+15.3159+226.715+14.6809+225.932+14.6809L177.74+14.6809C176.957+14.6809+176.322+15.3159+176.322+16.0979L176.322+19.6409C176.322+20.4239+175.688+21.0589+174.905+21.0589L123.878+21.0589C123.095+21.0589+122.46+21.6939+122.46+22.4759L122.46+33.1069C122.46+33.8899+121.826+34.5249+121.043+34.5249L68.5969+34.5249C67.8139+34.5249+67.1789+35.1589+67.1789+35.9419L67.1789+192.567C67.1789+193.35+67.8139+193.985+68.5969+193.985L172.07+193.985Z" fill="none" stroke-linecap="round" opacity="1" stroke-linejoin="round"/>
<path stroke="#ff0000" stroke-width="1" d="M186.65+189.72C186.65+187.998+188.046+186.602+189.769+186.602C191.491+186.602+192.887+187.998+192.887+189.72C192.887+191.443+191.491+192.838+189.769+192.838C188.046+192.838+186.65+191.443+186.65+189.72Z" fill="none" stroke-linecap="round" opacity="1" stroke-linejoin="round"/>
<path stroke="#ff0000" stroke-width="1" d="M279.565+77.0513C279.565+75.3283+280.961+73.9323+282.683+73.9323C284.405+73.9323+285.802+75.3283+285.802+77.0513C285.802+78.7733+284.405+80.1693+282.683+80.1693C280.961+80.1693+279.565+78.7733+279.565+77.0513Z" fill="none" stroke-linecap="round" opacity="1" stroke-linejoin="round"/>
<path stroke="#ff0000" stroke-width="1" d="M117.954+87.3189C117.954+85.5969+119.35+84.2009+121.072+84.2009C122.794+84.2009+124.19+85.5969+124.19+87.3189C124.19+89.0419+122.794+90.4369+121.072+90.4369C119.35+90.4369+117.954+89.0419+117.954+87.3189Z" fill="none" stroke-linecap="round" opacity="1" stroke-linejoin="round"/>
<path stroke="#ff0000" stroke-width="1" d="M117.929+141.22C117.929+139.497+119.325+138.102+121.047+138.102C122.769+138.102+124.165+139.497+124.165+141.22C124.165+142.943+122.769+144.338+121.047+144.338C119.325+144.338+117.929+142.943+117.929+141.22Z" fill="none" stroke-linecap="round" opacity="1" stroke-linejoin="round"/>
<path stroke="#ff0000" stroke-width="1" d="M318.518+211.702C318.518+209.979+319.914+208.584+321.637+208.584C323.359+208.584+324.755+209.979+324.755+211.702C324.755+213.424+323.359+214.82+321.637+214.82C319.914+214.82+318.518+213.424+318.518+211.702Z" fill="none" stroke-linecap="round" opacity="1" stroke-linejoin="round"/>
<path stroke="#ff0000" stroke-width="1" d="M493.534+200.985C492.751+200.985+492.117+200.35+492.117+199.567L492.117+42.9419C492.117+42.1589+492.751+41.5249+493.534+41.5249L545.994+41.5249C546.777+41.5249+547.411+40.8899+547.411+40.1069L547.411+29.4759C547.411+28.6939+548.046+28.0589+548.828+28.0589L599.856+28.0589C600.638+28.0589+601.273+27.4239+601.273+26.6409L601.273+23.0979C601.273+22.3149+601.908+21.6799+602.691+21.6799L650.884+21.6799C651.666+21.6799+652.301+22.3149+652.301+23.0979L652.301+26.6409C652.301+27.4239+652.935+28.0589+653.718+28.0589L704.745+28.0589C705.528+28.0589+706.163+28.6939+706.163+29.4759L706.163+33.7289C706.163+34.5109+706.798+35.1459+707.58+35.1459L758.607+35.1459C759.39+35.1459+760.025+35.7809+760.025+36.5639L760.025+40.0629L760.022+86.1569L760.023+177.696C760.256+178.782+760.831+179.765+761.664+180.502L815.74+211.789C817.235+212.912+817.694+214.954+816.825+216.61L779.302+281.92C779.288+281.94+779.274+281.96+779.261+281.98C778.472+283.094+776.93+283.36+775.815+282.572L734.005+258.506C733.746+258.417+733.48+258.348+733.211+258.302L628.913+242.798C628.547+242.761+628.2+242.613+627.921+242.374C627.921+242.374+598.013+201.386+598.023+201.4C597.758+201.134+597.397+200.985+597.021+200.985L493.534+200.985Z" fill="none" stroke-linecap="butt" opacity="1" stroke-linejoin="miter"/>
<path stroke="#ff0000" stroke-width="1" d="M704.516+84.0474C704.516+82.3244+705.912+80.9284+707.634+80.9284C709.357+80.9284+710.752+82.3244+710.752+84.0474C710.752+85.7694+709.357+87.1654+707.634+87.1654C705.912+87.1654+704.516+85.7694+704.516+84.0474Z" fill="none" stroke-linecap="round" opacity="1" stroke-linejoin="round"/>
<path stroke="#ff0000" stroke-width="1" d="M542.905+94.315C542.905+92.593+544.301+91.197+546.023+91.197C547.745+91.197+549.141+92.593+549.141+94.315C549.141+96.038+547.745+97.433+546.023+97.433C544.301+97.433+542.905+96.038+542.905+94.315Z" fill="none" stroke-linecap="round" opacity="1" stroke-linejoin="round"/>
<path stroke="#ff0000" stroke-width="1" d="M542.88+148.216C542.88+146.494+544.276+145.098+545.998+145.098C547.72+145.098+549.116+146.494+549.116+148.216C549.116+149.939+547.72+151.334+545.998+151.334C544.276+151.334+542.88+149.939+542.88+148.216Z" fill="none" stroke-linecap="round" opacity="1" stroke-linejoin="round"/>
<path stroke="#ff0000" stroke-width="1" d="M743.469+218.698C743.469+216.975+744.865+215.58+746.587+215.58C748.309+215.58+749.705+216.975+749.705+218.698C749.705+220.421+748.309+221.816+746.587+221.816C744.865+221.816+743.469+220.421+743.469+218.698Z" fill="none" stroke-linecap="round" opacity="1" stroke-linejoin="round"/>
<path stroke="#ff0000" stroke-width="1" d="M611.601+196.716C611.601+194.994+612.997+193.598+614.719+193.598C616.442+193.598+617.838+194.994+617.838+196.716C617.838+198.439+616.442+199.834+614.719+199.834C612.997+199.834+611.601+198.439+611.601+196.716Z" fill="none" stroke-linecap="round" opacity="1" stroke-linejoin="round"/>
<path stroke="#ff0000" stroke-width="1" d="M499.417+86.996L538.68+86.996L538.68+47.734L499.417+47.734L499.417+86.996Z" fill="none" stroke-linecap="round" opacity="1" stroke-linejoin="round"/>
<path stroke="#ff0000" stroke-width="1" d="M499.417+140.858L538.68+140.858L538.68+101.595L499.417+101.595L499.417+140.858Z" fill="none" stroke-linecap="round" opacity="1" stroke-linejoin="round"/>
<path stroke="#ff0000" stroke-width="1" d="M499.417+194.72L538.68+194.72L538.68+155.457L499.417+155.457L499.417+194.72Z" fill="none" stroke-linecap="round" opacity="1" stroke-linejoin="round"/>
<path stroke="#ff0000" stroke-width="1" d="M553.279+73.531L592.542+73.531L592.542+34.268L553.279+34.268L553.279+73.531Z" fill="none" stroke-linecap="round" opacity="1" stroke-linejoin="round"/>
<path stroke="#ff0000" stroke-width="1" d="M553.279+127.393L592.542+127.393L592.542+88.13L553.279+88.13L553.279+127.393Z" fill="none" stroke-linecap="round" opacity="1" stroke-linejoin="round"/>
<path stroke="#ff0000" stroke-width="1" d="M553.279+181.254L592.542+181.254L592.542+141.991L553.279+141.991L553.279+181.254Z" fill="none" stroke-linecap="round" opacity="1" stroke-linejoin="round"/>
<path stroke="#ff0000" stroke-width="1" d="M607.141+66.797L646.404+66.797L646.404+27.534L607.141+27.534L607.141+66.797Z" fill="none" stroke-linecap="round" opacity="1" stroke-linejoin="round"/>
<path stroke="#ff0000" stroke-width="1" d="M607.141+120.66L646.404+120.66L646.404+81.397L607.141+81.397L607.141+120.66Z" fill="none" stroke-linecap="round" opacity="1" stroke-linejoin="round"/>
<path stroke="#ff0000" stroke-width="1" d="M607.141+174.522L646.404+174.522L646.404+135.259L607.141+135.259L607.141+174.522Z" fill="none" stroke-linecap="round" opacity="1" stroke-linejoin="round"/>
<path stroke="#ff0000" stroke-width="1" d="M661.003+73.531L700.266+73.531L700.266+34.268L661.003+34.268L661.003+73.531Z" fill="none" stroke-linecap="round" opacity="1" stroke-linejoin="round"/>
<path stroke="#ff0000" stroke-width="1" d="M661.003+127.393L700.266+127.393L700.266+88.13L661.003+88.13L661.003+127.393Z" fill="none" stroke-linecap="round" opacity="1" stroke-linejoin="round"/>
<path stroke="#ff0000" stroke-width="1" d="M661.003+181.254L700.266+181.254L700.266+141.991L661.003+141.991L661.003+181.254Z" fill="none" stroke-linecap="round" opacity="1" stroke-linejoin="round"/>
<path stroke="#ff0000" stroke-width="1" d="M714.865+80.263L754.128+80.263L754.128+41L714.865+41L714.865+80.263Z" fill="none" stroke-linecap="round" opacity="1" stroke-linejoin="round"/>
<path stroke="#ff0000" stroke-width="1" d="M714.865+134.126L754.128+134.126L754.128+94.863L714.865+94.863L714.865+134.126Z" fill="none" stroke-linecap="round" opacity="1" stroke-linejoin="round"/>
<path stroke="#ff0000" stroke-width="1" d="M714.865+187.988L754.128+187.988L754.128+148.725L714.865+148.725L714.865+187.988Z" fill="none" stroke-linecap="round" opacity="1" stroke-linejoin="round"/>
<path stroke="#ff0000" stroke-width="1" d="M699.351+201.026L689.228+238.962L727.163+249.085L737.287+211.15L699.351+201.026Z" fill="none" stroke-linecap="round" opacity="1" stroke-linejoin="round"/>
<path stroke="#ff0000" stroke-width="1" d="M769.12+208.854L749.512+242.871L783.527+262.478L803.136+228.462L769.12+208.854Z" fill="none" stroke-linecap="round" opacity="1" stroke-linejoin="round"/>
<path stroke="#ff0000" stroke-width="1" d="M769.199+37.3569L769.199+171.596C769.369+173.078+770.033+173.811+771.011+174.663L824.414+205.437C825.561+205.92+826.883+205.38+827.365+204.233C827.435+204.064+827.486+203.886+827.513+203.706L827.511+37.3859C827.511+36.6039+826.876+35.9689+826.094+35.9689L770.617+35.9379C769.834+35.9389+769.2+36.5739+769.199+37.3569" fill="none" stroke-linecap="round" opacity="1" stroke-linejoin="round"/>
<path stroke="#ff0000" stroke-width="1" d="M776.221+170.51C776.221+168.787+777.617+167.392+779.339+167.392C781.061+167.392+782.457+168.787+782.457+170.51C782.457+172.232+781.061+173.628+779.339+173.628C777.617+173.628+776.221+172.232+776.221+170.51Z" fill="none" stroke-linecap="round" opacity="1" stroke-linejoin="round"/>
<path stroke="#ff0000" stroke-width="1" d="M817.326+194.606C817.326+192.884+818.722+191.488+820.445+191.488C822.167+191.488+823.563+192.884+823.563+194.606C823.563+196.329+822.167+197.724+820.445+197.724C818.722+197.724+817.326+196.329+817.326+194.606Z" fill="none" stroke-linecap="round" opacity="1" stroke-linejoin="round"/>
<path stroke="#ff0000" stroke-width="1" d="M708.13+472.461C707.754+472.461+707.393+472.61+707.127+472.877C707.138+472.863+677.23+513.851+677.23+513.851C676.95+514.09+676.604+514.238+676.237+514.275L571.94+529.779C571.67+529.825+571.404+529.894+571.146+529.983L529.336+554.048C528.221+554.836+526.678+554.571+525.89+553.456C525.876+553.437+525.862+553.417+525.849+553.397L488.326+488.087C487.119+486.118+486.423+483.88+486.3+481.574L486.3+314.441C486.3+313.658+486.935+313.024+487.718+313.024L543.706+313.024C544.462+312.91+545.046+312.3+545.126+311.54L545.126+308.04C545.126+307.258+545.76+306.623+546.543+306.623L597.57+306.623C598.354+306.623+598.988+305.988+598.988+305.205L598.988+300.953C598.988+300.17+599.622+299.536+600.405+299.536L651.433+299.536C652.216+299.536+652.85+298.901+652.85+298.118L652.85+294.575C652.85+293.792+653.484+293.157+654.268+293.157L702.46+293.157C703.242+293.157+703.877+293.792+703.877+294.575L703.877+298.118C703.877+298.901+704.512+299.536+705.295+299.536L756.322+299.536C757.105+299.536+757.739+300.17+757.739+300.953L757.739+311.584C757.739+312.366+758.374+313.001+759.156+313.001L811.603+313.001C812.386+313.001+813.021+313.636+813.021+314.419L813.021+471.044C813.021+471.827+812.386+472.461+811.603+472.461L708.13+472.461Z" fill="none" stroke-linecap="round" opacity="1" stroke-linejoin="round"/>
<path stroke="#ff0000" stroke-width="1" d="M693.548+468.197C693.548+466.474+692.152+465.079+690.43+465.079C688.707+465.079+687.312+466.474+687.312+468.197C687.312+469.919+688.707+471.315+690.43+471.315C692.152+471.315+693.548+469.919+693.548+468.197Z" fill="none" stroke-linecap="round" opacity="1" stroke-linejoin="round"/>
<path stroke="#ff0000" stroke-width="1" d="M600.633+355.527C600.633+353.805+599.237+352.409+597.515+352.409C595.793+352.409+594.397+353.805+594.397+355.527C594.397+357.25+595.793+358.645+597.515+358.645C599.237+358.645+600.633+357.25+600.633+355.527Z" fill="none" stroke-linecap="round" opacity="1" stroke-linejoin="round"/>
<path stroke="#ff0000" stroke-width="1" d="M762.245+365.795C762.245+364.072+760.849+362.677+759.127+362.677C757.405+362.677+756.009+364.072+756.009+365.795C756.009+367.517+757.405+368.913+759.127+368.913C760.849+368.913+762.245+367.517+762.245+365.795Z" fill="none" stroke-linecap="round" opacity="1" stroke-linejoin="round"/>
<path stroke="#ff0000" stroke-width="1" d="M762.27+419.697C762.27+417.974+760.874+416.579+759.152+416.579C757.429+416.579+756.034+417.974+756.034+419.697C756.034+421.419+757.429+422.815+759.152+422.815C760.874+422.815+762.27+421.419+762.27+419.697Z" fill="none" stroke-linecap="round" opacity="1" stroke-linejoin="round"/>
<path stroke="#ff0000" stroke-width="1" d="M561.681+490.178C561.681+488.455+560.285+487.059+558.563+487.059C556.841+487.059+555.445+488.455+555.445+490.178C555.445+491.9+556.841+493.296+558.563+493.296C560.285+493.296+561.681+491.9+561.681+490.178Z" fill="none" stroke-linecap="round" opacity="1" stroke-linejoin="round"/>
<path stroke="#ff0000" stroke-width="1" d="M386.665+479.461C387.448+479.461+388.082+478.827+388.082+478.044L388.082+321.419C388.082+320.636+387.448+320.001+386.665+320.001L334.206+320.001C333.423+320.001+332.788+319.366+332.788+318.584L332.788+307.953C332.788+307.17+332.153+306.536+331.371+306.536L280.343+306.536C279.561+306.536+278.926+305.901+278.926+305.118L278.926+301.575C278.926+300.792+278.291+300.157+277.508+300.157L229.316+300.157C228.533+300.157+227.899+300.792+227.899+301.575L227.899+305.118C227.899+305.901+227.264+306.536+226.481+306.536L175.454+306.536C174.671+306.536+174.037+307.17+174.037+307.953L174.037+312.205C174.037+312.988+173.402+313.623+172.619+313.623L121.592+313.623C120.809+313.623+120.174+314.258+120.174+315.04L120.174+318.54L120.176+364.634L120.176+456.172C119.943+457.259+119.369+458.242+118.536+458.979L64.4591+490.266C62.9641+491.389+62.5051+493.431+63.3741+495.087L100.897+560.397C100.911+560.417+100.925+560.437+100.939+560.456C101.727+561.571+103.269+561.836+104.384+561.048L146.194+536.983C146.453+536.894+146.719+536.825+146.989+536.779L251.286+521.275C251.652+521.238+251.999+521.09+252.278+520.851C252.278+520.851+282.186+479.863+282.176+479.877C282.442+479.61+282.802+479.461+283.178+479.461L386.665+479.461Z" fill="none" stroke-linecap="butt" opacity="1" stroke-linejoin="miter"/>
<path stroke="#ff0000" stroke-width="1" d="M175.683+362.523C175.683+360.801+174.287+359.405+172.565+359.405C170.843+359.405+169.447+360.801+169.447+362.523C169.447+364.246+170.843+365.642+172.565+365.642C174.287+365.642+175.683+364.246+175.683+362.523Z" fill="none" stroke-linecap="round" opacity="1" stroke-linejoin="round"/>
<path stroke="#ff0000" stroke-width="1" d="M337.294+372.792C337.294+371.069+335.898+369.674+334.175+369.674C332.453+369.674+331.057+371.069+331.057+372.792C331.057+374.515+332.453+375.91+334.175+375.91C335.898+375.91+337.294+374.515+337.294+372.792Z" fill="none" stroke-linecap="round" opacity="1" stroke-linejoin="round"/>
<path stroke="#ff0000" stroke-width="1" d="M337.319+426.693C337.319+424.97+335.923+423.575+334.2+423.575C332.478+423.575+331.082+424.97+331.082+426.693C331.082+428.415+332.478+429.811+334.2+429.811C335.923+429.811+337.319+428.415+337.319+426.693Z" fill="none" stroke-linecap="round" opacity="1" stroke-linejoin="round"/>
<path stroke="#ff0000" stroke-width="1" d="M136.73+497.174C136.73+495.451+135.334+494.056+133.612+494.056C131.89+494.056+130.493+495.451+130.493+497.174C130.493+498.896+131.89+500.292+133.612+500.292C135.334+500.292+136.73+498.896+136.73+497.174Z" fill="none" stroke-linecap="round" opacity="1" stroke-linejoin="round"/>
<path stroke="#ff0000" stroke-width="1" d="M268.598+475.193C268.598+473.47+267.202+472.075+265.48+472.075C263.758+472.075+262.361+473.47+262.361+475.193C262.361+476.915+263.758+478.311+265.48+478.311C267.202+478.311+268.598+476.915+268.598+475.193Z" fill="none" stroke-linecap="round" opacity="1" stroke-linejoin="round"/>
<path stroke="#ff0000" stroke-width="1" d="M380.782+365.472L341.519+365.472L341.519+326.209L380.782+326.209L380.782+365.472Z" fill="none" stroke-linecap="round" opacity="1" stroke-linejoin="round"/>
<path stroke="#ff0000" stroke-width="1" d="M380.782+419.334L341.519+419.334L341.519+380.071L380.782+380.071L380.782+419.334Z" fill="none" stroke-linecap="round" opacity="1" stroke-linejoin="round"/>
<path stroke="#ff0000" stroke-width="1" d="M380.782+473.197L341.519+473.197L341.519+433.934L380.782+433.934L380.782+473.197Z" fill="none" stroke-linecap="round" opacity="1" stroke-linejoin="round"/>
<path stroke="#ff0000" stroke-width="1" d="M326.92+352.006L287.657+352.006L287.657+312.744L326.92+312.744L326.92+352.006Z" fill="none" stroke-linecap="round" opacity="1" stroke-linejoin="round"/>
<path stroke="#ff0000" stroke-width="1" d="M326.92+405.869L287.657+405.869L287.657+366.606L326.92+366.606L326.92+405.869Z" fill="none" stroke-linecap="round" opacity="1" stroke-linejoin="round"/>
<path stroke="#ff0000" stroke-width="1" d="M326.92+459.731L287.657+459.731L287.657+420.468L326.92+420.468L326.92+459.731Z" fill="none" stroke-linecap="round" opacity="1" stroke-linejoin="round"/>
<path stroke="#ff0000" stroke-width="1" d="M273.058+345.274L233.795+345.274L233.795+306.011L273.058+306.011L273.058+345.274Z" fill="none" stroke-linecap="round" opacity="1" stroke-linejoin="round"/>
<path stroke="#ff0000" stroke-width="1" d="M273.058+399.136L233.795+399.136L233.795+359.873L273.058+359.873L273.058+399.136Z" fill="none" stroke-linecap="round" opacity="1" stroke-linejoin="round"/>
<path stroke="#ff0000" stroke-width="1" d="M273.058+452.999L233.795+452.999L233.795+413.736L273.058+413.736L273.058+452.999Z" fill="none" stroke-linecap="round" opacity="1" stroke-linejoin="round"/>
<path stroke="#ff0000" stroke-width="1" d="M219.196+352.006L179.933+352.006L179.933+312.744L219.196+312.744L219.196+352.006Z" fill="none" stroke-linecap="round" opacity="1" stroke-linejoin="round"/>
<path stroke="#ff0000" stroke-width="1" d="M219.196+405.869L179.933+405.869L179.933+366.606L219.196+366.606L219.196+405.869Z" fill="none" stroke-linecap="round" opacity="1" stroke-linejoin="round"/>
<path stroke="#ff0000" stroke-width="1" d="M219.196+459.731L179.933+459.731L179.933+420.468L219.196+420.468L219.196+459.731Z" fill="none" stroke-linecap="round" opacity="1" stroke-linejoin="round"/>
<path stroke="#ff0000" stroke-width="1" d="M165.334+358.74L126.071+358.74L126.071+319.477L165.334+319.477L165.334+358.74Z" fill="none" stroke-linecap="round" opacity="1" stroke-linejoin="round"/>
<path stroke="#ff0000" stroke-width="1" d="M165.334+412.602L126.071+412.602L126.071+373.339L165.334+373.339L165.334+412.602Z" fill="none" stroke-linecap="round" opacity="1" stroke-linejoin="round"/>
<path stroke="#ff0000" stroke-width="1" d="M165.334+466.463L126.071+466.463L126.071+427.2L165.334+427.2L165.334+466.463Z" fill="none" stroke-linecap="round" opacity="1" stroke-linejoin="round"/>
<path stroke="#ff0000" stroke-width="1" d="M180.848+479.503L190.971+517.439L153.036+527.562L142.913+489.626L180.848+479.503Z" fill="none" stroke-linecap="round" opacity="1" stroke-linejoin="round"/>
<path stroke="#ff0000" stroke-width="1" d="M111.08+487.331L130.688+521.347L96.6717+540.955L77.0637+506.939L111.08+487.331Z" fill="none" stroke-linecap="round" opacity="1" stroke-linejoin="round"/>
<path stroke="#ff0000" stroke-width="1" d="M111+315.833L111+450.072C110.831+451.554+110.166+452.286+109.189+453.139L55.7851+483.912C54.6381+484.395+53.3171+483.855+52.8341+482.71C52.7641+482.539+52.7131+482.363+52.6861+482.182L52.6881+315.862C52.6881+315.079+53.3231+314.444+54.1061+314.444L109.582+314.414C110.365+314.415+111+315.05+111+315.833" fill="none" stroke-linecap="round" opacity="1" stroke-linejoin="round"/>
<path stroke="#ff0000" stroke-width="1" d="M103.978+448.987C103.978+447.264+102.582+445.868+100.86+445.868C99.1381+445.868+97.7411+447.264+97.7411+448.987C97.7411+450.709+99.1381+452.105+100.86+452.105C102.582+452.105+103.978+450.709+103.978+448.987Z" fill="none" stroke-linecap="round" opacity="1" stroke-linejoin="round"/>
<path stroke="#ff0000" stroke-width="1" d="M62.8731+473.083C62.8731+471.36+61.4771+469.965+59.7541+469.965C58.0321+469.965+56.6361+471.36+56.6361+473.083C56.6361+474.806+58.0321+476.201+59.7541+476.201C61.4771+476.201+62.8731+474.806+62.8731+473.083Z" fill="none" stroke-linecap="round" opacity="1" stroke-linejoin="round"/>
</g>
</svg>
